<svg width="2279" height="1598" viewBox="0 0 2279 1598" fill="none" xmlns="http://www.w3.org/2000/svg">
<path d="M2278.37 444.617L949.967 1211.57L949.408 1210.6L948.599 1211.07L972.599 1252.64L1838.97 752.44C1884.75 1042.37 1751.92 1343.59 1482.53 1499.12C1140.58 1696.55 705.348 1586.06 497.902 1253.68L1761.33 521.895C1784.6 565.327 1803.04 610.132 1816.81 655.672L2254.37 403.048L2278.37 444.617ZM2034.16 41.5684L705.761 808.521L705.418 807.929L704.391 808.522L728.391 850.092L1619.33 335.71C1652.96 367.546 1683.93 402.967 1711.62 441.812L1951.99 303.031L1975.99 344.601L622.608 1125.98L473.814 1212.16C473.777 1212.09 473.739 1212.02 473.701 1211.95L24 1471.58L0 1430.02L452.328 1168.86C297.996 830.45 423.389 423.761 752.098 233.98C1007.5 86.5249 1314.93 110.842 1540.63 271.082L2010.16 0L2034.16 41.5684Z" fill="#1E1E1E"/>
</svg>
